<svg width="22" height="21" viewBox="0 0 22 21" fill="none" xmlns="http://www.w3.org/2000/svg">
<path d="M1.16211 8.64292C0.848859 8.35324 1.01902 7.82955 1.44271 7.77931L7.44629 7.06722C7.61897 7.04674 7.76896 6.93831 7.8418 6.7804L10.374 1.29061C10.5527 0.903178 11.1035 0.903104 11.2822 1.29054L13.8145 6.78029C13.8873 6.93819 14.0363 7.04692 14.209 7.0674L20.2129 7.77931C20.6366 7.82955 20.8063 8.35339 20.493 8.64308L16.0549 12.7481C15.9272 12.8661 15.8704 13.0419 15.9043 13.2124L17.0822 19.1421C17.1653 19.5606 16.7199 19.8848 16.3476 19.6764L11.0723 16.7228C10.9206 16.6378 10.7362 16.6382 10.5845 16.7232L5.30859 19.6757C4.93628 19.8841 4.49009 19.5606 4.57324 19.1421L5.75129 13.2128C5.78518 13.0422 5.72848 12.8661 5.60082 12.748L1.16211 8.64292Z" stroke="#FDC700" stroke-width="2" stroke-linecap="round" stroke-linejoin="round"/>
</svg>
