<svg width="15" height="17" viewBox="0 0 15 17" fill="none" xmlns="http://www.w3.org/2000/svg">
<path d="M9.35714 3.34386V13.6565C9.35714 14.0921 9.35714 14.3099 9.39283 14.491C9.53937 15.2348 10.1153 15.8161 10.852 15.9641C11.0314 16.0001 11.2471 16.0001 11.6786 16.0001C12.1101 16.0001 12.3257 16.0001 12.5051 15.9641C13.2418 15.8161 13.8176 15.2348 13.9642 14.491C13.9999 14.3099 14 14.0921 14 13.6565V3.34386C14 2.90825 13.9999 2.69048 13.9642 2.50935C13.8176 1.76555 13.2419 1.18407 12.5052 1.03612C12.3258 1.00009 12.11 1.00009 11.6786 1.00009C11.2471 1.00009 11.0314 1.00009 10.852 1.03612C10.1153 1.18407 9.53937 1.76555 9.39283 2.50935C9.35714 2.69048 9.35714 2.90824 9.35714 3.34386Z" stroke="black" stroke-width="2" stroke-linecap="round" stroke-linejoin="round"/>
<path d="M1 3.34386V13.6565C1 14.0921 1 14.3099 1.03568 14.491C1.18223 15.2348 1.75816 15.8161 2.49487 15.9641C2.67427 16.0001 2.89001 16.0001 3.32147 16.0001C3.75293 16.0001 3.96859 16.0001 4.14798 15.9641C4.8847 15.8161 5.4605 15.2348 5.60704 14.491C5.64272 14.3099 5.64286 14.0921 5.64286 13.6565V3.34386C5.64286 2.90825 5.64272 2.69048 5.60704 2.50935C5.4605 1.76555 4.88474 1.18407 4.14802 1.03612C3.96863 1.00009 3.75289 1.00009 3.32143 1.00009C2.88996 1.00009 2.67427 1.00009 2.49487 1.03612C1.75816 1.18407 1.18223 1.76555 1.03568 2.50935C1 2.69048 1 2.90824 1 3.34386Z" stroke="black" stroke-width="2" stroke-linecap="round" stroke-linejoin="round"/>
</svg>
