<svg width="22" height="20" viewBox="0 0 22 20" fill="none" xmlns="http://www.w3.org/2000/svg">
<path d="M9.88889 1H15.2224C16.467 1 17.089 1 17.5643 1.24524C17.9825 1.46095 18.3228 1.80491 18.5358 2.22827C18.7778 2.7091 18.7778 3.33887 18.7778 4.59652V6.62522L9.88896 6.62511M9.88889 1H4.55577C3.31121 1 2.68847 1 2.21311 1.24524C1.79497 1.46095 1.45526 1.80491 1.24221 2.22827C1 2.70957 1 3.3401 1 4.60022V6.625M9.88889 1L9.88896 6.62511M1 6.625V13.375M1 6.625L9.88896 6.62511M1 13.375V15.4002C1 16.6603 1 17.2901 1.24221 17.7714C1.45526 18.1947 1.79497 18.5393 2.21311 18.755C2.688 19 3.30999 19 4.55212 19H9.88911L9.88896 6.62511M1 13.375H9.88889M14.3333 14.5H17.6667M17.6667 14.5H21M17.6667 14.5V17.875M17.6667 14.5V11.125" stroke="white" stroke-width="2" stroke-linecap="round" stroke-linejoin="round"/>
</svg>
