<svg width="247" height="247" viewBox="0 0 247 247" fill="none" xmlns="http://www.w3.org/2000/svg">
<path d="M123.5 247C125.433 247 127 245.433 127 243.5V163.5C127 161.567 125.433 160 123.5 160H43.5C41.567 160 40 161.567 40 163.5V243.5C40 245.433 41.567 247 43.5 247H123.5ZM47 167H120V240H47V167Z" fill="black"/>
<path d="M123.5 167C124.915 167 126.191 166.147 126.733 164.84C127.275 163.532 126.975 162.026 125.974 161.025L85.9744 121.025C85.3181 120.369 84.428 120 83.4998 120H3.4998C2.08418 120 0.808137 120.853 0.266407 122.161C-0.275175 123.469 0.0243317 124.973 1.0252 125.974L41.0252 165.974C41.6815 166.631 42.5717 167 43.4998 167H123.5ZM11.949 127H82.0506L115.051 160H44.95L11.949 127Z" fill="black"/>
<path d="M203.5 247C205.433 247 207 245.433 207 243.5V163.5C207 161.567 205.433 160 203.5 160H123.5C121.567 160 120 161.567 120 163.5V243.5C120 245.433 121.567 247 123.5 247H203.5ZM127 167H200V240H127V167Z" fill="black"/>
<path d="M203.5 167C204.428 167 205.318 166.631 205.975 165.974L245.975 125.974C246.975 124.973 247.275 123.469 246.733 122.161C246.192 120.853 244.916 120 243.5 120H163.5C162.572 120 161.682 120.369 161.025 121.025L121.025 161.025C120.024 162.026 119.725 163.532 120.267 164.84C120.808 166.147 122.084 167 123.5 167H203.5ZM164.949 127H235.051L202.051 160H131.949L164.949 127Z" fill="black"/>
<path d="M123.5 119C125.433 119 127 117.433 127 115.5H123.5C127 115.5 127 115.499 127 115.497V115.421C127 115.373 126.999 115.305 126.998 115.217C126.996 115.04 126.994 114.782 126.988 114.448C126.976 113.781 126.951 112.811 126.903 111.582C126.808 109.125 126.617 105.627 126.235 101.433C125.474 93.0621 123.949 81.8434 120.877 70.5789C117.817 59.3587 113.152 47.8252 105.959 39.034C98.6804 30.138 88.7474 23.9998 75.5 23.9998C64.6534 23.9999 56.1586 27.8195 50.6552 33.9022C45.1741 39.9602 42.8951 48.0151 44.0351 55.9949C46.3541 72.2276 62.3269 86.9998 91.5 86.9998C93.4329 86.9998 94.9999 85.4327 95 83.4998C95 81.5669 93.4329 79.9999 91.5 79.9998C64.6734 79.9998 52.6458 66.7718 50.9648 55.0047C50.1049 48.9847 51.8269 43.0403 55.8457 38.5985C59.8422 34.1812 66.3466 30.9999 75.5 30.9998C86.2525 30.9998 94.3195 35.8626 100.541 43.4666C106.848 51.1753 111.183 61.6413 114.123 72.4207C117.051 83.1563 118.526 93.9385 119.265 102.067C119.633 106.123 119.817 109.5 119.909 111.855C119.955 113.032 119.978 113.953 119.989 114.575C119.995 114.886 119.998 115.122 119.999 115.278C120 115.356 120 115.414 120 115.451V115.501C120 117.433 121.567 119 123.5 119Z" fill="black"/>
<path d="M147.5 87.0001C184.626 87.0001 204.717 68.2441 206.979 47.8869C208.095 37.8423 204.735 27.7859 197.225 20.2755C189.709 12.7594 178.261 8.00017 163.5 8.00014C161.567 8.00014 160 9.56714 160 11.5001C160 13.4331 161.567 15.0001 163.5 15.0001C176.739 15.0002 186.291 19.241 192.275 25.2247C198.264 31.2143 200.906 39.1581 200.022 47.1134C198.284 62.7561 182.375 80.0001 147.5 80.0001C145.567 80.0001 144 81.5671 144 83.5001C144 85.4331 145.567 87.0001 147.5 87.0001Z" fill="black"/>
<path d="M131.5 15.0001C132.428 15.0001 133.319 14.6311 133.976 13.9747L141.975 5.97472C143.342 4.60784 143.342 2.39131 141.975 1.02452C140.608 -0.342027 138.391 -0.341298 137.025 1.0255L131.499 6.55089L125.975 1.0255C124.608 -0.341338 122.392 -0.341337 121.026 1.0255C119.659 2.39234 119.659 4.60791 121.026 5.97472L129.026 13.9747L129.152 14.0948C129.794 14.676 130.63 15.0001 131.5 15.0001Z" fill="black"/>
</svg>
