<svg width="182" height="40" viewBox="0 0 182 40" fill="none" xmlns="http://www.w3.org/2000/svg">
<path d="M31.4167 5H41.4167C42.1076 5 42.6667 5.55908 42.6667 6.25V13.75C42.6667 14.4409 42.1076 15 41.4167 15H33.9167C31.8489 15 30.1667 13.3178 30.1667 11.25V6.25C30.1667 5.55908 30.7258 5 31.4167 5ZM31.4167 17.5H41.4167C42.1076 17.5 42.6667 18.0591 42.6667 18.75V26.25C42.6667 26.9409 42.1076 27.5 41.4167 27.5H33.9167C31.8489 27.5 30.1667 25.8178 30.1667 23.75V18.75C30.1667 18.0591 30.7258 17.5 31.4167 17.5ZM16.3334 5H26.3334C27.0243 5 27.5834 5.55908 27.5834 6.25V13.75C27.5834 14.4409 27.0243 15 26.3334 15H18.8334C16.7655 15 15.0834 13.3178 15.0834 11.25V6.25C15.0834 5.55908 15.6424 5 16.3334 5ZM1.25002 5H11.25C11.9409 5 12.5 5.55908 12.5 6.25V13.75C12.5 14.4409 11.9409 15 11.25 15H3.75002C1.68219 15 1.90735e-05 13.3178 1.90735e-05 11.25V6.25C1.90735e-05 5.55908 0.559101 5 1.25002 5ZM1.25002 17.5H11.25C11.9409 17.5 12.5 18.0591 12.5 18.75V26.25C12.5 26.9409 11.9409 27.5 11.25 27.5H3.75002C1.68219 27.5 1.90735e-05 25.8178 1.90735e-05 23.75V18.75C1.90735e-05 18.0591 0.559101 17.5 1.25002 17.5ZM1.25002 30H11.25C11.9409 30 12.5 30.5591 12.5 31.25V38.75C12.5 39.4409 11.9409 40 11.25 40H3.75002C1.68219 40 1.90735e-05 38.3178 1.90735e-05 36.25V31.25C1.90735e-05 30.5591 0.559101 30 1.25002 30ZM16.3334 17.5H26.3334C27.0243 17.5 27.5834 18.0591 27.5834 18.75V26.25C27.5834 26.9409 27.0243 27.5 26.3334 27.5H18.8334C16.7655 27.5 15.0834 25.8178 15.0834 23.75V18.75C15.0834 18.0591 15.6424 17.5 16.3334 17.5Z" fill="url(#paint0_linear_5_13)"/>
<path d="M16.3334 0H26.3334C27.0243 0 27.5834 0.559083 27.5834 1.25C27.5834 1.94092 27.0243 2.5 26.3334 2.5H16.3334C15.6424 2.5 15.0834 1.94092 15.0834 1.25C15.0834 0.559083 15.6424 0 16.3334 0ZM31.4167 0H41.4167C42.1076 0 42.6667 0.559083 42.6667 1.25C42.6667 1.94092 42.1076 2.5 41.4167 2.5H31.4167C30.7258 2.5 30.1667 1.94092 30.1667 1.25C30.1667 0.559083 30.7258 0 31.4167 0ZM1.25002 0H11.25C11.9409 0 12.5 0.559083 12.5 1.25C12.5 1.94092 11.9409 2.5 11.25 2.5H1.25002C0.559101 2.5 1.90735e-05 1.94092 1.90735e-05 1.25C1.90735e-05 0.559083 0.559101 0 1.25002 0Z" fill="url(#paint1_linear_5_13)"/>
<path d="M175.501 26.972C174.157 26.972 172.981 26.668 171.973 26.06C170.965 25.452 170.181 24.628 169.621 23.588C169.061 22.548 168.781 21.396 168.781 20.132C168.781 18.82 169.061 17.66 169.621 16.652C170.197 15.628 170.973 14.82 171.949 14.228C172.941 13.636 174.045 13.34 175.261 13.34C176.285 13.34 177.181 13.508 177.949 13.844C178.733 14.18 179.397 14.644 179.941 15.236C180.485 15.828 180.901 16.508 181.189 17.276C181.477 18.028 181.621 18.844 181.621 19.724C181.621 19.948 181.605 20.18 181.573 20.42C181.557 20.66 181.517 20.868 181.453 21.044H171.373V18.644H179.677L178.189 19.772C178.333 19.036 178.293 18.38 178.069 17.804C177.861 17.228 177.509 16.772 177.013 16.436C176.533 16.1 175.949 15.932 175.261 15.932C174.605 15.932 174.021 16.1 173.509 16.436C172.997 16.756 172.605 17.236 172.333 17.876C172.077 18.5 171.981 19.26 172.045 20.156C171.981 20.956 172.085 21.668 172.357 22.292C172.645 22.9 173.061 23.372 173.605 23.708C174.165 24.044 174.805 24.212 175.525 24.212C176.245 24.212 176.853 24.06 177.349 23.756C177.861 23.452 178.261 23.044 178.549 22.532L181.093 23.78C180.837 24.404 180.437 24.956 179.893 25.436C179.349 25.916 178.701 26.292 177.949 26.564C177.213 26.836 176.397 26.972 175.501 26.972Z" fill="black"/>
<path d="M160.995 26.972C159.699 26.972 158.531 26.676 157.491 26.084C156.467 25.476 155.659 24.66 155.067 23.636C154.475 22.596 154.179 21.428 154.179 20.132C154.179 18.836 154.475 17.676 155.067 16.652C155.659 15.628 156.467 14.82 157.491 14.228C158.531 13.636 159.699 13.34 160.995 13.34C161.923 13.34 162.787 13.508 163.587 13.844C164.387 14.164 165.075 14.612 165.651 15.188C166.243 15.748 166.667 16.42 166.923 17.204L164.163 18.404C163.923 17.748 163.515 17.22 162.939 16.82C162.379 16.42 161.731 16.22 160.995 16.22C160.307 16.22 159.691 16.388 159.147 16.724C158.619 17.06 158.203 17.524 157.899 18.116C157.595 18.708 157.443 19.388 157.443 20.156C157.443 20.924 157.595 21.604 157.899 22.196C158.203 22.788 158.619 23.252 159.147 23.588C159.691 23.924 160.307 24.092 160.995 24.092C161.747 24.092 162.403 23.892 162.963 23.492C163.523 23.092 163.923 22.556 164.163 21.884L166.923 23.132C166.667 23.868 166.251 24.532 165.675 25.124C165.099 25.7 164.411 26.156 163.611 26.492C162.811 26.812 161.939 26.972 160.995 26.972Z" fill="black"/>
<path d="M144.746 26.972C143.834 26.972 143.042 26.82 142.37 26.516C141.698 26.212 141.178 25.78 140.81 25.22C140.442 24.644 140.258 23.98 140.258 23.228C140.258 22.508 140.418 21.868 140.738 21.308C141.058 20.732 141.554 20.252 142.226 19.868C142.898 19.484 143.746 19.212 144.77 19.052L149.042 18.356V20.756L145.37 21.38C144.746 21.492 144.282 21.692 143.978 21.98C143.674 22.268 143.522 22.644 143.522 23.108C143.522 23.556 143.69 23.916 144.026 24.188C144.378 24.444 144.81 24.572 145.322 24.572C145.978 24.572 146.554 24.436 147.05 24.164C147.562 23.876 147.954 23.484 148.226 22.988C148.514 22.492 148.658 21.948 148.658 21.356V17.996C148.658 17.436 148.434 16.972 147.986 16.604C147.554 16.22 146.978 16.028 146.258 16.028C145.586 16.028 144.986 16.212 144.458 16.58C143.946 16.932 143.57 17.404 143.33 17.996L140.762 16.748C141.018 16.06 141.418 15.468 141.962 14.972C142.522 14.46 143.178 14.06 143.93 13.772C144.682 13.484 145.498 13.34 146.378 13.34C147.45 13.34 148.394 13.54 149.21 13.94C150.026 14.324 150.658 14.868 151.106 15.572C151.57 16.26 151.802 17.068 151.802 17.996V26.684H148.826V24.452L149.498 24.404C149.162 24.964 148.762 25.436 148.298 25.82C147.834 26.188 147.306 26.476 146.714 26.684C146.122 26.876 145.466 26.972 144.746 26.972Z" fill="black"/>
<path d="M124.661 31.484V13.628H127.613V16.22L127.325 15.572C127.773 14.868 128.381 14.324 129.149 13.94C129.917 13.54 130.805 13.34 131.813 13.34C133.045 13.34 134.157 13.644 135.149 14.252C136.141 14.86 136.925 15.676 137.501 16.7C138.093 17.724 138.389 18.876 138.389 20.156C138.389 21.42 138.101 22.572 137.525 23.612C136.949 24.652 136.165 25.476 135.173 26.084C134.181 26.676 133.053 26.972 131.789 26.972C130.845 26.972 129.973 26.788 129.173 26.42C128.389 26.036 127.765 25.492 127.301 24.788L127.805 24.164V31.484H124.661ZM131.429 24.092C132.149 24.092 132.789 23.924 133.349 23.588C133.909 23.252 134.341 22.788 134.645 22.196C134.965 21.604 135.125 20.924 135.125 20.156C135.125 19.388 134.965 18.716 134.645 18.14C134.341 17.548 133.909 17.084 133.349 16.748C132.789 16.396 132.149 16.22 131.429 16.22C130.741 16.22 130.117 16.388 129.557 16.724C129.013 17.06 128.581 17.532 128.261 18.14C127.957 18.732 127.805 19.404 127.805 20.156C127.805 20.924 127.957 21.604 128.261 22.196C128.581 22.788 129.013 23.252 129.557 23.588C130.117 23.924 130.741 24.092 131.429 24.092Z" fill="black"/>
<path d="M115.769 26.972C114.633 26.972 113.577 26.764 112.601 26.348C111.641 25.932 110.809 25.356 110.105 24.62C109.417 23.868 108.913 22.996 108.593 22.004L111.305 20.828C111.737 21.852 112.361 22.66 113.177 23.252C113.993 23.828 114.913 24.116 115.937 24.116C116.513 24.116 117.009 24.028 117.425 23.852C117.857 23.66 118.185 23.404 118.409 23.084C118.649 22.764 118.769 22.38 118.769 21.932C118.769 21.404 118.609 20.972 118.289 20.636C117.985 20.284 117.521 20.012 116.897 19.82L113.465 18.716C112.073 18.284 111.025 17.636 110.321 16.772C109.617 15.908 109.265 14.892 109.265 13.724C109.265 12.7 109.513 11.796 110.009 11.012C110.521 10.228 111.225 9.61999 112.121 9.18799C113.033 8.73999 114.073 8.51599 115.241 8.51599C116.313 8.51599 117.297 8.70799 118.193 9.09199C119.089 9.45999 119.857 9.97999 120.497 10.652C121.153 11.308 121.641 12.084 121.961 12.98L119.273 14.18C118.921 13.284 118.393 12.596 117.689 12.116C116.985 11.62 116.169 11.372 115.241 11.372C114.697 11.372 114.217 11.468 113.801 11.66C113.385 11.836 113.057 12.092 112.817 12.428C112.593 12.748 112.481 13.132 112.481 13.58C112.481 14.076 112.641 14.516 112.961 14.9C113.281 15.268 113.769 15.556 114.425 15.764L117.713 16.796C119.137 17.26 120.201 17.9 120.905 18.716C121.625 19.532 121.985 20.54 121.985 21.74C121.985 22.764 121.721 23.668 121.193 24.452C120.665 25.236 119.937 25.852 119.009 26.3C118.081 26.748 117.001 26.972 115.769 26.972Z" fill="black"/>
<path d="M91.2219 26.684L86.7339 13.628H90.0459L93.3339 23.54L92.1819 23.516L95.6859 13.628H98.4699L101.95 23.516L100.798 23.54L104.086 13.628H107.398L102.91 26.684H100.102L96.5499 16.34H97.6059L94.0059 26.684H91.2219Z" fill="black"/>
<path d="M78.8961 26.972C77.6161 26.972 76.4481 26.676 75.3921 26.084C74.3521 25.492 73.5201 24.684 72.8961 23.66C72.2881 22.636 71.9841 21.468 71.9841 20.156C71.9841 18.844 72.2881 17.676 72.8961 16.652C73.5201 15.628 74.3521 14.82 75.3921 14.228C76.4321 13.636 77.6001 13.34 78.8961 13.34C80.1761 13.34 81.3361 13.636 82.3761 14.228C83.4161 14.82 84.2401 15.628 84.8481 16.652C85.4721 17.66 85.7841 18.828 85.7841 20.156C85.7841 21.468 85.4721 22.636 84.8481 23.66C84.2241 24.684 83.3921 25.492 82.3521 26.084C81.3121 26.676 80.1601 26.972 78.8961 26.972ZM78.8961 24.092C79.6001 24.092 80.2161 23.924 80.7441 23.588C81.2881 23.252 81.7121 22.788 82.0161 22.196C82.3361 21.588 82.4961 20.908 82.4961 20.156C82.4961 19.388 82.3361 18.716 82.0161 18.14C81.7121 17.548 81.2881 17.084 80.7441 16.748C80.2161 16.396 79.6001 16.22 78.8961 16.22C78.1761 16.22 77.5441 16.396 77.0001 16.748C76.4561 17.084 76.0241 17.548 75.7041 18.14C75.4001 18.716 75.2481 19.388 75.2481 20.156C75.2481 20.908 75.4001 21.588 75.7041 22.196C76.0241 22.788 76.4561 23.252 77.0001 23.588C77.5441 23.924 78.1761 24.092 78.8961 24.092Z" fill="black"/>
<path d="M66.4652 26.684V8.51599H69.6092V26.684H66.4652Z" fill="black"/>
<path d="M52.6667 26.684V8.80399H64.5947V11.684H55.9307V16.628H63.5147V19.508H55.9307V26.684H52.6667Z" fill="black"/>
<defs>
<linearGradient id="paint0_linear_5_13" x1="21.3334" y1="40" x2="21.3334" y2="5" gradientUnits="userSpaceOnUse">
<stop stop-color="#FD3A84"/>
<stop offset="1" stop-color="#FFA68D"/>
</linearGradient>
<linearGradient id="paint1_linear_5_13" x1="21.3334" y1="2.5" x2="21.3334" y2="0" gradientUnits="userSpaceOnUse">
<stop stop-color="#FFC2CC"/>
<stop offset="1" stop-color="#FFF2F4"/>
</linearGradient>
</defs>
</svg>
