<svg width="20" height="20" viewBox="0 0 20 20" fill="none" xmlns="http://www.w3.org/2000/svg">
<path d="M15 19.0003L5 19.0001M15 19.0003L15.8031 19.0001C16.921 19.0001 17.48 19.0001 17.9074 18.7823C18.2837 18.5906 18.5905 18.2845 18.7822 17.9081C19 17.4807 19 16.9211 19 15.8032V7.21967C19 6.77085 19 6.54533 18.9521 6.33118C18.9095 6.14012 18.8393 5.95664 18.7432 5.78607C18.6366 5.59686 18.487 5.43067 18.1929 5.1039L15.4377 2.04253C15.0969 1.66386 14.9242 1.47193 14.7168 1.33411C14.5303 1.21013 14.3242 1.11871 14.1073 1.06299C13.8625 1.00012 13.5998 1.00012 13.075 1.00012H4.2002C3.08009 1.00012 2.51962 1.00012 2.0918 1.21811C1.71547 1.40986 1.40973 1.71559 1.21799 2.09192C1 2.51974 1 3.08021 1 4.20032V15.8003C1 16.9204 1 17.4797 1.21799 17.9075C1.40973 18.2838 1.71547 18.5906 2.0918 18.7823C2.5192 19.0001 3.07899 19.0001 4.19691 19.0001H5M15 19.0003V15.197C15 14.0791 15 13.5193 14.7822 13.0919C14.5905 12.7156 14.2837 12.4099 13.9074 12.2181C13.4796 12.0001 12.9203 12.0001 11.8002 12.0001H8.2002C7.08009 12.0001 6.51962 12.0001 6.0918 12.2181C5.71547 12.4099 5.40973 12.7156 5.21799 13.0919C5 13.5197 5 14.0802 5 15.2003V19.0001M13 5.00012H7" stroke="white" stroke-width="2" stroke-linecap="round" stroke-linejoin="round"/>
</svg>
